<svg xmlns="http://www.w3.org/2000/svg" width="25px" height="25px" viewBox="0 0 30 30" fill="none">
  <g clip-path="url(#clip0_3_30)">
    <path d="M15 12.6375C15.4612 12.6375 15.9122 12.774 16.296 13.0298C16.6798 13.2855 16.9794 13.6491 17.1571 14.0748C17.3347 14.5005 17.3824 14.9692 17.2942 15.4219C17.2061 15.8746 16.9859 16.2912 16.6615 16.6191C16.3371 16.9469 15.9229 17.1715 15.4712 17.2645C15.0194 17.3575 14.5502 17.3148 14.1227 17.1417C13.6951 16.9686 13.3284 16.6729 13.0685 16.2918C12.8087 15.9107 12.6674 15.4612 12.6625 15C12.6609 14.6914 12.72 14.3855 12.8366 14.0997C12.9532 13.814 13.1249 13.554 13.342 13.3346C13.559 13.1153 13.8172 12.9408 14.1016 12.8212C14.3861 12.7015 14.6914 12.6391 15 12.6375ZM9.2125 25C10 25.475 11.7125 24.75 13.7125 22.875C13.044 22.1154 12.4141 21.3227 11.825 20.5C10.8168 20.3871 9.81534 20.2202 8.825 20C8.1875 22.675 8.425 24.5125 9.2125 25ZM10.1 17.825L9.7375 17.1875C9.59619 17.5386 9.47516 17.8975 9.375 18.2625C9.7125 18.3375 10.0875 18.4 10.475 18.4625L10.1 17.825ZM18.275 16.875L19.2875 15L18.275 13.125C17.9 12.4625 17.5 11.875 17.1375 11.2875C16.4625 11.25 15.75 11.25 15 11.25C14.25 11.25 13.5375 11.25 12.8625 11.25C12.5 11.8375 12.1 12.425 11.725 13.0875L10.7125 15L11.725 16.875C12.1 17.5375 12.5 18.125 12.8625 18.7125C13.5375 18.7125 14.25 18.7125 15 18.7125C15.75 18.7125 16.4625 18.7125 17.1375 18.7125C17.5 18.125 17.9 17.5375 18.275 16.875ZM15 8.47501C14.7625 8.75001 14.5125 9.03751 14.2625 9.37501H15.7375C15.4875 9.03751 15.2375 8.75001 15 8.47501ZM15 21.525C15.2375 21.25 15.4875 20.9625 15.7375 20.625H14.2625C14.5125 20.9625 14.7625 21.25 15 21.525ZM20.775 5.00001C20 4.52501 18.275 5.25001 16.2875 7.125C16.956 7.88463 17.5859 8.67729 18.175 9.50001C19.1823 9.5964 20.1837 9.74662 21.175 9.95001C21.8125 7.27501 21.575 5.43751 20.775 4.95001M19.9 12.125L20.2625 12.7625C20.4038 12.4114 20.5248 12.0525 20.625 11.6875C20.2875 11.6125 19.9125 11.55 19.525 11.4875L19.9 12.125ZM21.7125 3.37501C23.55 4.42501 23.75 7.18751 22.9625 10.4125C26.1375 11.35 28.425 12.9125 28.425 15.0125C28.425 17.1125 26.1375 18.675 22.9625 19.6125C23.7375 22.8375 23.5375 25.6 21.7125 26.65C19.8875 27.7 17.4 26.5 15 24.2125C12.6 26.5 10.1125 27.7 8.275 26.65C6.4375 25.6 6.25 22.9 7.025 19.6125C3.85 18.675 1.5625 17.1125 1.5625 15.0125C1.5625 12.9125 3.85 11.3375 7.025 10.4C6.25 7.175 6.45 4.41251 8.275 3.36251C10.1 2.31251 12.6 3.51251 15 5.8C17.4 3.51251 19.8875 2.31251 21.7125 3.36251M21.35 15C21.7841 15.9202 22.168 16.8632 22.5 17.825C25.125 17.0375 26.6 15.9125 26.6 15C26.6 14.0875 25.0875 12.9625 22.5 12.175C22.168 13.1368 21.7841 14.0798 21.35 15ZM8.65 15C8.21587 14.0798 7.83198 13.1368 7.5 12.175C4.875 12.9625 3.4 14.0875 3.4 15C3.4 15.9125 4.9125 17.0375 7.5 17.825C7.83198 16.8632 8.21587 15.9202 8.65 15ZM19.9 17.825L19.525 18.4625C19.9125 18.4625 20.2875 18.3375 20.625 18.2625C20.5248 17.8975 20.4038 17.5386 20.2625 17.1875L19.9 17.825ZM16.25 22.875C18.2375 24.75 20 25.475 20.7375 25C21.475 24.525 21.775 22.725 21.1375 20C20.1462 20.2034 19.1448 20.3536 18.1375 20.45C17.5498 21.2898 16.9198 22.0991 16.25 22.875ZM10.1 12.175L10.475 11.5375C10.0875 11.5375 9.7125 11.6625 9.375 11.7375C9.47516 12.1025 9.59619 12.4614 9.7375 12.8125L10.1 12.175ZM13.75 7.125C11.725 5.25001 10 4.52501 9.2125 5.00001C8.425 5.47501 8.1875 7.27501 8.825 10C9.81626 9.79662 10.8177 9.6464 11.825 9.55C12.4249 8.70937 13.0674 7.89998 13.75 7.125Z" fill="white"/>
  </g>
  <defs>
    <clipPath id="clip0_3_30">
      <rect width="30" height="30" fill="white"/>
    </clipPath>
  </defs>
</svg>